<?xml version="1.0" encoding="UTF-8" standalone="no"?>
<!DOCTYPE svg PUBLIC "-//W3C//DTD SVG 1.1//EN" "http://www.w3.org/Graphics/SVG/1.1/DTD/svg11.dtd">
<svg width="100%" height="100%" viewBox="0 0 41 30" version="1.1" xmlns="http://www.w3.org/2000/svg" xmlns:xlink="http://www.w3.org/1999/xlink" xml:space="preserve" xmlns:serif="http://www.serif.com/" style="fill:#ffffff;fill-rule:evenodd;clip-rule:evenodd;stroke-linejoin:round;stroke-miterlimit:2;">
    <g transform="matrix(1,0,0,1,-0.762085,-6.11377)">
        <path d="M41.396,6.837C41.396,6.837 39.095,6.369 35.448,6.18C32.965,6.052 29.865,6.111 26.477,6.345C21.83,6.667 16.643,7.427 11.733,8.907C7.487,10.199 4.415,11.496 2.658,12.625C1.552,13.336 0.947,14.019 0.803,14.576C0.599,15.362 1.145,16.124 2.769,16.494C3.305,16.616 3.964,16.716 4.755,16.758C6.613,16.857 9.195,16.686 12.55,16.248C12.63,16.241 12.689,16.169 12.681,16.09C12.673,16.01 12.602,15.951 12.522,15.959C7.831,16.29 4.694,16.14 2.956,15.7C2.009,15.46 1.498,15.253 1.624,14.794C1.741,14.368 2.274,13.909 3.132,13.373C4.857,12.293 7.864,11.065 12.014,9.847C15.841,8.714 19.838,8.047 23.604,7.651C27.556,7.234 31.255,7.19 34.242,7.14C38.538,7.069 41.365,7.126 41.365,7.126C41.445,7.135 41.516,7.077 41.525,6.997C41.533,6.917 41.475,6.846 41.396,6.837L41.396,6.837Z"/>
        <path d="M17.472,10.475C17.472,10.475 17.747,10.58 18.155,10.833C18.547,11.076 18.992,11.483 19.531,11.954C19.78,12.17 20.043,12.395 20.306,12.646C21.757,14.035 22.998,16.271 21.707,19.96C21.005,21.969 19.595,24.371 17.156,27.263C16.043,28.583 14.678,29.962 13.161,31.54C12.356,32.378 11.547,33.291 10.632,34.223C10.619,34.234 10.618,34.253 10.628,34.265C10.639,34.277 10.658,34.279 10.67,34.268C11.732,33.497 12.731,32.785 13.622,32.031C15.315,30.596 16.667,29.157 17.835,27.853C20.469,24.911 21.978,22.413 22.732,20.324C24.271,16.056 22.808,13.348 21.02,11.849C20.705,11.585 20.383,11.354 20.051,11.185C19.372,10.84 18.734,10.709 18.257,10.591C17.78,10.473 17.487,10.419 17.487,10.419C17.472,10.414 17.455,10.423 17.451,10.439C17.447,10.455 17.456,10.471 17.472,10.475Z"/>
        <path d="M22.805,10.171C22.805,10.171 30.354,10.943 34.867,12.656C36.023,13.095 36.975,13.594 37.532,14.161C38.003,14.641 38.159,15.173 37.822,15.763C37.096,17.033 35.227,18.087 32.958,18.993C27.869,21.025 20.767,22.234 19.17,22.855C18.189,23.246 16.262,23.993 15.142,25.046C14.556,25.597 14.185,26.235 14.158,26.929C14.141,27.373 14.262,27.848 14.583,28.346C14.99,28.976 15.74,29.679 16.998,30.393C18.011,30.968 19.367,31.551 21.128,32.164C25.143,33.537 27.943,34.363 29.952,34.879C34.09,35.941 34.872,35.642 36.011,35.889C36.054,35.899 36.098,35.872 36.108,35.829C36.118,35.786 36.091,35.742 36.048,35.732C34.926,35.44 34.129,35.73 30.063,34.484C28.09,33.88 25.355,32.904 21.436,31.333C19.767,30.675 18.496,30.046 17.534,29.472C16.486,28.849 15.825,28.297 15.483,27.766C15.301,27.485 15.218,27.221 15.228,26.97C15.244,26.54 15.514,26.167 15.877,25.824C16.897,24.86 18.666,24.188 19.56,23.825C21.14,23.169 28.201,21.803 33.231,19.654C35.632,18.628 37.573,17.412 38.314,16.036C38.764,15.2 38.564,14.455 37.889,13.802C37.28,13.212 36.257,12.695 35.014,12.256C30.431,10.638 22.82,10.01 22.82,10.01C22.775,10.006 22.736,10.038 22.732,10.083C22.728,10.127 22.761,10.167 22.805,10.171L22.805,10.171Z"/>
    </g>
</svg>
